<?xml version="1.0" encoding="UTF-8" standalone="no"?>
<svg
   class="svg-icon"
   style="overflow:hidden;fill:currentColor"
   viewBox="0 0 32 29.091"
   version="1.1"
   id="svg4"
   width="32"
   height="29.091"
   xmlns="http://www.w3.org/2000/svg"
   xmlns:svg="http://www.w3.org/2000/svg">
  <defs
     id="defs8" />
  <path
     d="m 10.18185,1.45455 c 0,0.49455 0.24727,1.00364 0.72728,1.28 L 16.00005,5.8182 H 2.18183 A 2.181825,2.181825 0 0 0 0,8.00003 2.181825,2.181825 0 0 0 2.18183,10.18185 h 8.59639 l -9.32367,5.8182 C 0.23273,16.72732 0,17.7746 0,18.90915 c 0,1.45455 1.12,2.9091 2.9091,2.9091 1.00364,0 2.02182,-0.72728 2.9091,-1.45455 L 8.7273,18.00733 C 9.01821,24.17462 14.12368,29.091 20.3637,29.091 A 11.6364,11.6364 0 0 0 32.0001,17.4546 c 0,-4.24729 -2.28364,-8.00003 -5.68729,-9.99276 -0.0436,-0.0291 -0.0873,-0.0727 -0.13091,-0.10182 0,0 -0.11636,-0.0873 -0.20364,-0.13091 C 21.46916,4.1891 17.49824,2.50183 12.4364,0.18909 12.13095,0.05818 11.86913,0 11.6364,0 10.76367,0 10.18185,0.66909 10.18185,1.45455 m 10.18185,8.7273 a 7.27275,7.27275 0 0 1 7.27275,7.27275 7.27275,7.27275 0 0 1 -7.27275,7.27275 7.27275,7.27275 0 0 1 -7.27275,-7.27275 7.27275,7.27275 0 0 1 7.27275,-7.27275 m 0,2.18183 a 5.090925,5.090925 0 0 0 -5.09092,5.09092 5.090925,5.090925 0 0 0 5.09092,5.09093 5.090925,5.090925 0 0 0 5.09092,-5.09093 5.090925,5.090925 0 0 0 -5.09092,-5.09092 z"
     fill=""
     id="path2"
     style="stroke-width:0.034091" />
</svg>
