/* XPM */
static char * blender_xpm[] = {
"32 29 2 1",
" 	c None",
".	c #000000",
"           ..                   ",
"          .....                 ",
"           ......               ",
"            ........            ",
"              .......           ",
"               ........         ",
" ........................       ",
"..........................      ",
"............................    ",
" ............................   ",
"          ........    ........  ",
"         .......         .....  ",
"       ........    ...    ..... ",
"     .........   .......  ..... ",
"    ..........  ........   .....",
"  ...........   .........  .....",
" ............  ..........   ....",
".............  ..........   ....",
"........ ....  ..........  .....",
".......  ....   .........  .....",
" .....   .....  ........   .... ",
"  ..      ....   ......   ..... ",
"          .....          ...... ",
"           .....        ......  ",
"           ........   .......   ",
"            .................   ",
"             ...............    ",
"               ...........      ",
"                 .......        "};
