<?xml version="1.0" encoding="UTF-8" standalone="no"?>
<svg
   class="svg-icon"
   style="overflow:hidden;fill:currentColor"
   viewBox="0 0 64 58.181999"
   version="1.1"
   id="svg4"
   width="64"
   height="58.181999"
   xmlns="http://www.w3.org/2000/svg"
   xmlns:svg="http://www.w3.org/2000/svg">
  <defs
     id="defs8" />
  <path
     d="m 20.3637,2.9091 c 0,0.9891 0.49455,2.00728 1.45455,2.56001 L 32.0001,11.6364 H 4.36365 A 4.36365,4.36365 0 0 0 0,16.00005 4.36365,4.36365 0 0 0 4.36365,20.3637 H 21.55643 L 2.9091,32.0001 C 0.46545,33.45465 0,35.5492 0,37.8183 c 0,2.9091 2.24001,5.8182 5.8182,5.8182 2.00728,0 4.04365,-1.45455 5.8182,-2.9091 l 5.8182,-4.71274 C 18.03642,48.34924 28.24736,58.182 40.7274,58.182 A 23.2728,23.2728 0 0 0 64.0002,34.9092 c 0,-8.49457 -4.56729,-16.00005 -11.37458,-19.98552 -0.0873,-0.0582 -0.17455,-0.14545 -0.26182,-0.20363 0,0 -0.23273,-0.17455 -0.40728,-0.26182 C 42.93831,8.37821 34.99647,5.00365 24.8728,0.37818 24.26189,0.11637 23.73825,0 23.2728,0 21.52734,0 20.3637,1.33819 20.3637,2.9091 M 40.7274,20.3637 A 14.5455,14.5455 0 0 1 55.2729,34.9092 14.5455,14.5455 0 0 1 40.7274,49.4547 14.5455,14.5455 0 0 1 26.1819,34.9092 14.5455,14.5455 0 0 1 40.7274,20.3637 m 0,4.36365 A 10.18185,10.18185 0 0 0 30.54555,34.9092 10.18185,10.18185 0 0 0 40.7274,45.09105 10.18185,10.18185 0 0 0 50.90925,34.9092 10.18185,10.18185 0 0 0 40.7274,24.72735 Z"
     fill=""
     id="path2"
     style="stroke-width:0.068182" />
</svg>
